<svg width="70" height="70" viewBox="0 0 70 70" fill="none" xmlns="http://www.w3.org/2000/svg">
<g filter="url(#filter0_d_29_28)">
<circle cx="35" cy="31" r="31" fill="#E9B44C"/>
<circle cx="35" cy="31" r="30.5" stroke="#1C110A"/>
</g>
<path d="M51 26.4719V42C51 44.7614 48.7615 47 46 47H40C39.4477 47 39 46.5523 39 46V34C39 33.4477 38.5523 33 38 33H32C31.4477 33 31 33.4477 31 34V46C31 46.5523 30.5523 47 30 47H24C21.2386 47 19 44.7614 19 42V26.4719L18.6357 26.7719C18.2094 27.123 17.5792 27.062 17.2281 26.6357C16.877 26.2094 16.938 25.5792 17.3643 25.2281L34.3643 11.2281C34.7336 10.924 35.2665 10.924 35.6357 11.2281L52.6357 25.2281C53.0621 25.5792 53.1231 26.2094 52.772 26.6357C52.4209 27.062 51.7906 27.123 51.3643 26.7719L51 26.4719ZM49.0134 24.8359L35 13.2955L20.9866 24.8359C20.9954 24.8893 21 24.9441 21 25V42C21 43.6569 22.3432 45 24 45H29V34C29 32.3431 30.3432 31 32 31H38C39.6569 31 41 32.3431 41 34V45H46C47.6569 45 49 43.6569 49 42V25C49 24.9441 49.0046 24.8893 49.0134 24.8359Z" fill="#1C110A"/>
<defs>
<filter id="filter0_d_29_28" x="0" y="0" width="70" height="70" filterUnits="userSpaceOnUse" color-interpolation-filters="sRGB">
<feFlood flood-opacity="0" result="BackgroundImageFix"/>
<feColorMatrix in="SourceAlpha" type="matrix" values="0 0 0 0 0 0 0 0 0 0 0 0 0 0 0 0 0 0 127 0" result="hardAlpha"/>
<feOffset dy="4"/>
<feGaussianBlur stdDeviation="2"/>
<feComposite in2="hardAlpha" operator="out"/>
<feColorMatrix type="matrix" values="0 0 0 0 0 0 0 0 0 0 0 0 0 0 0 0 0 0 0.25 0"/>
<feBlend mode="normal" in2="BackgroundImageFix" result="effect1_dropShadow_29_28"/>
<feBlend mode="normal" in="SourceGraphic" in2="effect1_dropShadow_29_28" result="shape"/>
</filter>
</defs>
</svg>
